<svg width="387" height="70" viewBox="0 0 387 70" fill="none" xmlns="http://www.w3.org/2000/svg">
<path d="M29.8728 70C23.7697 70 18.534 68.9954 14.1655 66.9861C9.86123 64.9769 6.4885 62.0278 4.04728 58.1389C1.67031 54.25 0.353334 49.4213 0.0963635 43.6528C0.0321211 40.9954 0 38.1435 0 35.0972C0 32.0509 0.0321211 29.1343 0.0963635 26.3472C0.353334 20.7083 1.70243 15.9444 4.14364 12.0556C6.58486 8.10185 9.98971 5.12037 14.3582 3.11111C18.7267 1.03704 23.8982 0 29.8728 0C34.1128 0 38.0316 0.550927 41.6292 1.65278C45.2267 2.68981 48.3746 4.24537 51.0728 6.31944C53.771 8.3287 55.8589 10.7917 57.3365 13.7083C58.8783 16.5602 59.6813 19.8009 59.7456 23.4306C59.8098 24.0139 59.6171 24.5 59.1674 24.8889C58.7819 25.2778 58.3001 25.4722 57.7219 25.4722H44.7128C43.8776 25.4722 43.2352 25.3102 42.7855 24.9861C42.3358 24.5972 41.9504 23.9167 41.6292 22.9444C40.7298 19.5093 39.2522 17.1759 37.1964 15.9444C35.2049 14.6481 32.7316 14 29.7764 14C26.2431 14 23.4485 15.0046 21.3928 17.0139C19.337 18.9583 18.2128 22.2315 18.02 26.8333C17.8273 32.1481 17.8273 37.5926 18.02 43.1667C18.2128 47.7685 19.337 51.0741 21.3928 53.0833C23.4485 55.0278 26.2431 56 29.7764 56C32.7316 56 35.237 55.3518 37.2928 54.0556C39.3485 52.7593 40.794 50.4259 41.6292 47.0556C41.8861 46.0833 42.2395 45.4352 42.6892 45.1111C43.2031 44.7222 43.8776 44.5278 44.7128 44.5278H57.7219C58.3001 44.5278 58.7819 44.7222 59.1674 45.1111C59.6171 45.5 59.8098 45.9861 59.7456 46.5694C59.6813 50.1991 58.8783 53.4722 57.3365 56.3889C55.8589 59.2407 53.771 61.7037 51.0728 63.7778C48.3746 65.787 45.2267 67.3426 41.6292 68.4444C38.0316 69.4815 34.1128 70 29.8728 70Z" fill="white"/>
<path d="M72.2871 69.0278C71.5805 69.0278 71.0023 68.8009 70.5526 68.3472C70.1029 67.8935 69.878 67.3102 69.878 66.5972V3.40278C69.878 2.68981 70.1029 2.10648 70.5526 1.65278C71.0023 1.19907 71.5805 0.972221 72.2871 0.972221H84.7181C85.4247 0.972221 86.0029 1.19907 86.4526 1.65278C86.9023 2.10648 87.1272 2.68981 87.1272 3.40278V26.8333H110.929V3.40278C110.929 2.68981 111.154 2.10648 111.604 1.65278C112.053 1.19907 112.631 0.972221 113.338 0.972221H125.769C126.476 0.972221 127.054 1.19907 127.504 1.65278C127.953 2.10648 128.178 2.68981 128.178 3.40278V66.5972C128.178 67.3102 127.953 67.8935 127.504 68.3472C127.054 68.8009 126.476 69.0278 125.769 69.0278H113.338C112.631 69.0278 112.053 68.8009 111.604 68.3472C111.154 67.8935 110.929 67.3102 110.929 66.5972V42.3889H87.1272V66.5972C87.1272 67.3102 86.9023 67.8935 86.4526 68.3472C86.0029 68.8009 85.4247 69.0278 84.7181 69.0278H72.2871Z" fill="white"/>
<path d="M144.089 69.0278C143.383 69.0278 142.805 68.8009 142.355 68.3472C141.905 67.8935 141.68 67.3102 141.68 66.5972V3.40278C141.68 2.68981 141.905 2.10648 142.355 1.65278C142.805 1.19907 143.383 0.972221 144.089 0.972221H189.091C189.798 0.972221 190.376 1.19907 190.826 1.65278C191.276 2.10648 191.5 2.68981 191.5 3.40278V12.5417C191.5 13.2546 191.276 13.838 190.826 14.2917C190.376 14.7454 189.798 14.9722 189.091 14.9722H158.351V28.0972H186.971C187.678 28.0972 188.256 28.3565 188.706 28.875C189.156 29.3287 189.38 29.912 189.38 30.625V39.0833C189.38 39.7315 189.156 40.3148 188.706 40.8333C188.256 41.287 187.678 41.5139 186.971 41.5139H158.351V55.0278H189.862C190.569 55.0278 191.147 55.2546 191.597 55.7083C192.047 56.162 192.271 56.7454 192.271 57.4583V66.5972C192.271 67.3102 192.047 67.8935 191.597 68.3472C191.147 68.8009 190.569 69.0278 189.862 69.0278H144.089Z" fill="white"/>
<path d="M230.317 70C224.214 70 218.978 68.9954 214.61 66.9861C210.305 64.9769 206.933 62.0278 204.491 58.1389C202.115 54.25 200.798 49.4213 200.541 43.6528C200.476 40.9954 200.444 38.1435 200.444 35.0972C200.444 32.0509 200.476 29.1343 200.541 26.3472C200.798 20.7083 202.147 15.9444 204.588 12.0556C207.029 8.10185 210.434 5.12037 214.802 3.11111C219.171 1.03704 224.342 0 230.317 0C234.557 0 238.476 0.550927 242.073 1.65278C245.671 2.68981 248.819 4.24537 251.517 6.31944C254.215 8.3287 256.303 10.7917 257.781 13.7083C259.322 16.5602 260.126 19.8009 260.19 23.4306C260.254 24.0139 260.061 24.5 259.612 24.8889C259.226 25.2778 258.744 25.4722 258.166 25.4722H245.157C244.322 25.4722 243.679 25.3102 243.23 24.9861C242.78 24.5972 242.395 23.9167 242.073 22.9444C241.174 19.5093 239.696 17.1759 237.641 15.9444C235.649 14.6481 233.176 14 230.221 14C226.687 14 223.893 15.0046 221.837 17.0139C219.781 18.9583 218.657 22.2315 218.464 26.8333C218.272 32.1481 218.272 37.5926 218.464 43.1667C218.657 47.7685 219.781 51.0741 221.837 53.0833C223.893 55.0278 226.687 56 230.221 56C233.176 56 235.681 55.3518 237.737 54.0556C239.793 52.7593 241.238 50.4259 242.073 47.0556C242.33 46.0833 242.684 45.4352 243.133 45.1111C243.647 44.7222 244.322 44.5278 245.157 44.5278H258.166C258.744 44.5278 259.226 44.7222 259.612 45.1111C260.061 45.5 260.254 45.9861 260.19 46.5694C260.126 50.1991 259.322 53.4722 257.781 56.3889C256.303 59.2407 254.215 61.7037 251.517 63.7778C248.819 65.787 245.671 67.3426 242.073 68.4444C238.476 69.4815 234.557 70 230.317 70Z" fill="white"/>
<path d="M272.731 69.0278C272.025 69.0278 271.446 68.8009 270.997 68.3472C270.547 67.8935 270.322 67.3102 270.322 66.5972V3.40278C270.322 2.68981 270.547 2.10648 270.997 1.65278C271.446 1.19907 272.025 0.972221 272.731 0.972221H284.873C285.58 0.972221 286.158 1.19907 286.608 1.65278C287.057 2.10648 287.282 2.68981 287.282 3.40278V24.9861L305.11 2.81944C305.367 2.43056 305.784 2.04167 306.362 1.65278C307.005 1.19907 307.84 0.972221 308.868 0.972221H322.744C323.322 0.972221 323.804 1.19907 324.19 1.65278C324.575 2.04167 324.768 2.49537 324.768 3.01389C324.768 3.46759 324.639 3.85648 324.382 4.18055L301.351 33.5417L326.213 65.8194C326.47 66.0787 326.599 66.4676 326.599 66.9861C326.599 67.5046 326.374 67.9907 325.924 68.4444C325.539 68.8333 325.089 69.0278 324.575 69.0278H310.217C309.06 69.0278 308.161 68.7685 307.519 68.25C306.94 67.7315 306.555 67.3426 306.362 67.0833L287.282 43.0694V66.5972C287.282 67.3102 287.057 67.8935 286.608 68.3472C286.158 68.8009 285.58 69.0278 284.873 69.0278H272.731Z" fill="white"/>
<path d="M357.394 70C350.97 70 345.638 69.0926 341.398 67.2778C337.158 65.3982 333.946 62.9676 331.762 59.9861C329.577 57.0046 328.421 53.8287 328.293 50.4583C328.293 49.9398 328.485 49.4861 328.871 49.0972C329.32 48.6435 329.834 48.4167 330.413 48.4167H342.554C343.454 48.4167 344.128 48.5787 344.578 48.9028C345.092 49.2269 345.542 49.6481 345.927 50.1667C346.441 51.1389 347.148 52.0787 348.047 52.9861C349.011 53.8935 350.231 54.6389 351.709 55.2222C353.251 55.7407 355.146 56 357.394 56C361.121 56 363.915 55.4167 365.778 54.25C367.705 53.0833 368.669 51.4954 368.669 49.4861C368.669 48.0602 368.155 46.8935 367.127 45.9861C366.099 45.0139 364.429 44.1713 362.116 43.4583C359.868 42.6806 356.848 41.9028 353.058 41.125C348.176 40.088 344 38.7593 340.531 37.1389C337.126 35.4537 334.524 33.2824 332.725 30.625C330.927 27.9028 330.027 24.5324 330.027 20.5139C330.027 16.5602 331.119 13.0278 333.304 9.91667C335.552 6.80556 338.668 4.375 342.651 2.625C346.634 0.875 351.356 0 356.816 0C361.249 0 365.136 0.583334 368.476 1.75C371.881 2.91667 374.74 4.47222 377.053 6.41666C379.365 8.36111 381.1 10.4352 382.256 12.6389C383.477 14.7778 384.119 16.8843 384.184 18.9583C384.184 19.4769 383.991 19.963 383.605 20.4167C383.22 20.8056 382.738 21 382.16 21H369.44C368.733 21 368.123 20.8704 367.609 20.6111C367.095 20.3519 366.645 19.9306 366.26 19.3472C365.874 17.9213 364.847 16.6898 363.176 15.6528C361.57 14.5509 359.45 14 356.816 14C353.99 14 351.773 14.5185 350.167 15.5556C348.625 16.5278 347.854 18.0509 347.854 20.125C347.854 21.4213 348.272 22.5556 349.107 23.5278C350.007 24.5 351.452 25.3426 353.444 26.0556C355.499 26.7685 358.294 27.5139 361.827 28.2917C367.673 29.3935 372.395 30.787 375.993 32.4722C379.59 34.0926 382.224 36.2315 383.894 38.8889C385.565 41.4815 386.4 44.7546 386.4 48.7083C386.4 53.1157 385.147 56.9398 382.642 60.1806C380.201 63.3565 376.796 65.787 372.427 67.4722C368.059 69.1574 363.048 70 357.394 70Z" fill="white"/>
</svg>
