<svg width="498" height="115" viewBox="0 0 498 115" fill="none" xmlns="http://www.w3.org/2000/svg">
<g clip-path="url(#clip0_1_387)">
<path d="M193.432 50.2164V32.1039H117.225V50.2164H142.277L136.062 83.183H111.775V101.296H187.982V83.183H163.695L169.91 50.2164H193.432Z" fill="white"/>
<path d="M33.1789 101.2H60.6209L66.071 59.4168H107.855V41.3043H68.4614L70.2781 27.696H98.3894V9.5835H9.8485V27.696H42.8362L41.0195 41.3043H0V59.4168H38.6291L33.1789 101.2Z" fill="white"/>
<path d="M229.096 32.1039H201.845V64.208H229.096V32.1039Z" fill="white"/>
<path d="M268.872 32.1039L261.892 46.8622V32.1039H234.641V64.208H253.669L244.681 83.183H215.422V101.296H236.075H253.382H268.967L301.764 32.1039H268.872Z" fill="white"/>
<path d="M385.907 22.2333H339.246V14.4708H311.996V61.2375H339.246V40.3458H372.712L341.35 83.1833H326.625V101.296H328.059H358.178H364.585L402.353 49.6417V22.2333H385.907Z" fill="white"/>
<path d="M484.681 50.6959V22.2334H469H412.395V40.3459H455.805L424.443 83.1834H409.718V101.296H411.248H441.271H447.677L458.386 86.6334L467.374 101.2H497.972L498.641 100.817L475.597 63.1542L484.681 50.6959Z" fill="white"/>
</g>
<defs>
<clipPath id="clip0_1_387">
<rect width="497.206" height="115" fill="white"/>
</clipPath>
</defs>
</svg>
